HIERARCHY
ROOT Hips
{
 OFFSET 0.000000 0.000000 0.000000
 CHANNELS 6 Xposition Yposition Zposition Yrotation Xrotation Zrotation
 JOINT Chest
 {
  OFFSET 0.000000 10.383400 0.001500
  CHANNELS 3 Yrotation Xrotation Zrotation
  JOINT Chest2
  {
   OFFSET 0.000000 10.418200 -0.003100
   CHANNELS 3 Yrotation Xrotation Zrotation
   JOINT Chest3
   {
    OFFSET 0.000000 10.375100 0.000000
    CHANNELS 3 Yrotation Xrotation Zrotation
    JOINT Chest4
    {
     OFFSET 0.000000 10.364600 0.000000
     CHANNELS 3 Yrotation Xrotation Zrotation
     JOINT Neck
     {
      OFFSET 0.000000 15.642200 0.000000
      CHANNELS 3 Yrotation Xrotation Zrotation
      JOINT Head
      {
       OFFSET 0.000000 9.697300 -0.006500
       CHANNELS 3 Yrotation Xrotation Zrotation
       End Site
       {
        OFFSET 0.000000 18.492200 -0.003400
       }
      }
     }
     JOINT RightCollar
     {
      OFFSET -3.166800 10.349300 0.000000
      CHANNELS 3 Yrotation Xrotation Zrotation
      JOINT RightShoulder
      {
       OFFSET -14.729700 0.000000 0.000000
       CHANNELS 3 Yrotation Xrotation Zrotation
       JOINT RightElbow
       {
        OFFSET 0.000000 -32.224300 0.000000
        CHANNELS 3 Yrotation Xrotation Zrotation
        JOINT RightWrist
        {
         OFFSET 0.000000 -26.084100 0.000000
         CHANNELS 3 Yrotation Xrotation Zrotation
         End Site
         {
          OFFSET 0.000000 -19.319400 0.000000
         }
        }
       }
      }
     }
     JOINT LeftCollar
     {
      OFFSET 3.166800 10.349300 0.000000
      CHANNELS 3 Yrotation Xrotation Zrotation
      JOINT LeftShoulder
      {
       OFFSET 14.729700 0.000000 0.000000
       CHANNELS 3 Yrotation Xrotation Zrotation
       JOINT LeftElbow
       {
        OFFSET 0.000000 -32.224300 0.000000
        CHANNELS 3 Yrotation Xrotation Zrotation
        JOINT LeftWrist
        {
         OFFSET 0.000000 -26.084100 0.000000
         CHANNELS 3 Yrotation Xrotation Zrotation
         End Site
         {
          OFFSET 0.000000 -19.319400 0.000000
         }
        }
       }
      }
     }
    }
   }
  }
 }
 JOINT RightHip
 {
  OFFSET -8.428900 -0.007500 -0.000800
  CHANNELS 3 Yrotation Xrotation Zrotation
  JOINT RightKnee
  {
   OFFSET 0.000000 -43.834600 0.000700
   CHANNELS 3 Yrotation Xrotation Zrotation
   JOINT RightAnkle
   {
    OFFSET 0.000000 -42.757000 0.001200
    CHANNELS 3 Yrotation Xrotation Zrotation
    JOINT RightToe
    {
     OFFSET 0.000000 -6.946900 15.649300
     CHANNELS 3 Yrotation Xrotation Zrotation
     End Site
     {
      OFFSET 0.000000 -1.580800 6.825800
     }
    }
   }
  }
 }
 JOINT LeftHip
 {
  OFFSET 8.428900 -0.007500 -0.000800
  CHANNELS 3 Yrotation Xrotation Zrotation
  JOINT LeftKnee
  {
   OFFSET 0.000000 -43.834600 0.000700
   CHANNELS 3 Yrotation Xrotation Zrotation
   JOINT LeftAnkle
   {
    OFFSET 0.000000 -42.757000 0.001200
    CHANNELS 3 Yrotation Xrotation Zrotation
    JOINT LeftToe
    {
     OFFSET 0.000000 -6.946900 15.649300
     CHANNELS 3 Yrotation Xrotation Zrotation
     End Site
     {
      OFFSET 0.000000 -1.580800 6.825800
     }
    }
   }
  }
 }
}
MOTION
Frames: 12
Frame Time: 0.008333
0.000000 93.354300 0.000000 0.000000 -5.767877 0.000000 0.000000 11.653817 0.000000 0.000000 -5.885947 0.000000 0.000000 -0.000000 0.000000 0.000000 -0.000000 0.000000 0.000000 12.528835 0.000000 0.000000 0.711642 0.000000 0.000000 -0.000000 0.000000 0.000000 0.000000 -90.000000 0.000000 -2.309062 0.000000 0.000000 2.309062 0.000000 0.000000 -0.000000 0.000000 0.000000 -0.000000 90.000000 0.000000 -2.309062 0.000000 0.000000 2.309062 0.000000 0.000000 8.520406 0.000000 0.000000 1.905762 0.000000 -0.000000 -4.658285 0.000000 0.000000 -0.000000 0.000000 0.000000 8.520406 0.000000 0.000000 1.905762 0.000000 -0.000000 -4.658285 0.000000 0.000000 -0.000000 0.000000
-1.349056 151.218450 -2.586498 175.671874 -16.337829 -2.423522 -0.594327 17.989532 1.981745 -0.090504 1.989672 0.223482 -0.151266 3.317019 0.369136 -0.549480 15.731219 1.702582 -2.161160 8.928741 -1.901845 -1.901632 -16.231066 -1.540850 4.603812 -3.820005 -1.634260 21.010643 -24.605428 -12.119290 43.696024 -40.135711 -20.166553 19.995820 0.573610 -38.976344 -8.333545 -2.349283 -0.007649 -1.260904 -25.860001 6.167920 -29.341222 -52.117921 7.869618 -14.739983 5.882230 14.429907 0.446902 -51.522038 9.088125 -90.162196 83.865295 -87.620508 -0.898687 -20.240399 0.107261 -0.003568 0.030361 -0.028141 3.603109 -52.198509 -6.660945 95.270808 80.588238 100.392687 8.474713 -21.179029 -9.607970 -0.000855 -0.057154 0.024814
-1.943440 143.298202 -1.742399 175.659193 -16.358329 -2.401961 -0.573696 17.953370 1.968333 -0.092604 1.998355 0.223766 -0.152417 3.326863 0.368415 -0.547138 15.740691 1.702953 -2.168215 8.861881 -1.802330 -1.944132 -16.270609 -1.431995 4.636129 -3.872923 -1.643853 20.937685 -24.561331 -12.077387 43.689879 -40.117866 -20.149516 19.940441 0.539154 -38.998509 -8.339943 -2.361939 0.015132 -1.261839 -25.899036 6.130156 -29.341124 -51.998911 7.890382 -14.719816 5.810227 14.419778 0.471717 -51.495929 9.060561 -90.091841 83.870375 -87.555705 -0.901397 -20.193472 0.114401 -0.001532 0.026471 -0.000681 3.624906 -52.189416 -6.687448 95.271996 80.580175 100.404290 8.476920 -21.176522 -9.630076 0.006437 -0.007267 0.002857
-2.431418 136.776561 -1.047479 175.654878 -16.389733 -2.393187 -0.561564 17.939083 1.966187 -0.094440 2.007341 0.222935 -0.157507 3.350519 0.366633 -0.511886 15.651737 1.712950 -2.205006 8.869955 -1.708997 -1.985170 -16.306299 -1.326565 4.623760 -3.832044 -1.647230 20.889763 -24.538758 -12.047155 43.677964 -40.098502 -20.129168 19.877962 0.497700 -39.029101 -8.365793 -2.337784 0.055224 -1.276561 -25.977266 6.047161 -29.277910 -51.837590 7.829028 -14.684024 5.739828 14.476337 0.464298 -51.462489 9.053281 -90.004122 83.875117 -87.473003 -0.897248 -20.161686 0.122461 -0.001353 0.015989 -0.000601 3.620977 -52.171537 -6.694520 95.303105 80.576216 100.441593 8.472939 -21.166932 -9.640244 0.005289 -0.001226 0.002348
-2.784149 132.067338 -0.545272 175.653635 -16.426699 -2.384495 -0.554354 17.932643 1.963350 -0.100304 2.038070 0.219793 -0.148245 3.309927 0.369640 -0.502071 15.631262 1.717437 -2.227009 8.853957 -1.619140 -2.025504 -16.338987 -1.224587 4.620113 -3.807793 -1.652628 20.859526 -24.529885 -12.030454 43.643870 -40.055496 -20.131264 19.845988 0.436026 -39.012130 -8.388775 -2.304013 0.071875 -1.276496 -25.998634 6.009887 -29.249521 -51.750345 7.830073 -14.651870 5.665275 14.489641 0.449716 -51.423264 9.050695 -89.940040 83.881347 -87.418030 -0.893081 -20.140820 0.123845 -0.000665 0.007767 -0.000295 3.611774 -52.146265 -6.700137 95.346127 80.566031 100.479167 8.490486 -21.159706 -9.654554 0.004706 0.004617 0.002089
-3.005860 129.093662 -0.225567 175.648934 -16.456342 -2.383117 -0.544954 17.931347 1.967637 -0.094473 2.023348 0.220177 -0.146814 3.305918 0.369848 -0.506411 15.651927 1.717280 -2.234094 8.798092 -1.528135 -2.065136 -16.369254 -1.126025 4.630920 -3.826417 -1.662308 20.834975 -24.545045 -12.011536 43.611042 -39.997895 -20.095369 19.747322 0.356479 -39.059547 -8.400320 -2.316243 0.100412 -1.276039 -26.038572 5.965320 -29.207841 -51.645196 7.812699 -14.611013 5.595373 14.504768 0.426593 -51.394820 9.059885 -89.849485 83.885166 -87.320991 -0.886895 -20.116890 0.104066 0.008121 0.000816 0.003605 3.593038 -52.131948 -6.689705 95.407325 80.555869 100.533531 8.502648 -21.151569 -9.668412 0.002069 0.007083 0.000918
-3.128733 127.460008 -0.051221 175.640981 -16.504737 -2.373035 -0.537182 17.969311 1.960466 -0.084458 1.949363 0.230165 -0.143436 3.297662 0.370403 -0.517280 15.715708 1.709006 -2.241643 8.746475 -1.438296 -2.104574 -16.397388 -1.030447 4.639644 -3.843585 -1.672630 20.819577 -24.555774 -12.001324 43.571420 -39.944063 -20.059466 19.642261 0.273756 -39.129632 -8.412581 -2.331237 0.132650 -1.280119 -26.097325 5.914839 -29.153158 -51.539108 7.765333 -14.564528 5.553866 14.523893 0.416880 -51.348157 9.059182 -89.840716 83.893464 -87.322319 -0.881183 -20.106271 0.098126 0.006963 -0.004667 0.003091 3.552177 -52.102923 -6.681606 95.437102 80.531129 100.565540 8.502072 -21.119366 -9.709749 0.000276 0.001277 0.000123
-3.187517 126.682583 0.036028 175.636314 -16.530899 -2.365880 -0.530511 17.955480 1.961049 -0.083121 1.948473 0.230198 -0.146060 3.316031 0.367568 -0.502801 15.683727 1.717204 -2.262962 8.724751 -1.354998 -2.144456 -16.423716 -0.936261 4.627432 -3.811990 -1.679449 20.821404 -24.591249 -12.007132 43.524940 -39.894260 -20.012090 19.545298 0.215474 -39.214778 -8.438471 -2.325435 0.156675 -1.282155 -26.134039 5.867483 -29.089296 -51.430328 7.739581 -14.529398 5.489513 14.510240 0.402634 -51.326584 9.060584 -89.850176 83.901825 -87.341143 -0.878035 -20.092217 0.101704 0.006476 -0.005939 0.002874 3.527224 -52.087624 -6.671654 95.479854 80.519595 100.592850 8.512099 -21.112329 -9.723471 -0.003584 0.005058 -0.001591
-3.211721 126.365074 0.076814 175.632963 -16.543428 -2.361083 -0.520828 17.889603 1.970010 -0.087355 1.984372 0.224825 -0.148855 3.336770 0.365037 -0.480724 15.616385 1.732184 -2.293641 8.738823 -1.279268 -2.184400 -16.448081 -0.842644 4.605890 -3.745982 -1.685574 20.818749 -24.622222 -12.010643 43.489966 -39.859126 -19.960087 19.434946 0.167841 -39.311638 -8.471974 -2.290570 0.169386 -1.285499 -26.167801 5.821118 -29.009468 -51.295260 7.728158 -14.510574 5.400992 14.458556 0.360373 -51.319388 9.069741 -89.848670 83.918469 -87.358180 -0.867105 -20.068501 0.116736 0.000882 -0.005796 0.000391 3.506801 -52.084449 -6.665042 95.491130 80.508896 100.603513 8.513969 -21.103094 -9.747007 -0.000863 0.010249 -0.000383
-3.220314 126.256679 0.091733 175.630415 -16.578107 -2.355121 -0.517641 17.882777 1.968256 -0.086404 1.982489 0.224991 -0.143773 3.335532 0.368388 -0.472770 15.596097 1.735128 -2.316166 8.729521 -1.199269 -2.223215 -16.470747 -0.749908 4.611888 -3.761104 -1.689060 20.781891 -24.601843 -11.993076 43.446189 -39.809839 -19.922111 19.319792 0.085364 -39.376213 -8.494114 -2.253932 0.172705 -1.301089 -26.226373 5.795033 -28.950090 -51.198991 7.692129 -14.501417 5.375823 14.436626 0.342578 -51.285992 9.064929 -89.825211 83.929051 -87.338209 -0.855652 -20.058717 0.109197 0.000017 -0.006660 0.000007 3.472232 -52.064100 -6.651415 95.526298 80.496365 100.630826 8.521007 -21.085499 -9.771629 -0.001170 0.009490 -0.000519
-3.221058 126.227961 0.095248 175.620426 -16.632145 -2.356171 -0.505410 17.896177 1.974897 -0.086206 1.991139 0.223884 -0.136588 3.275283 0.373008 -0.471029 15.637090 1.733857 -2.331588 8.743388 -1.160858 -2.277577 -16.526144 -0.611125 4.619414 -3.770533 -1.695471 20.747078 -24.603307 -11.979415 43.407610 -39.765142 -19.878493 19.196252 0.004939 -39.431237 -8.507511 -2.229728 0.180644 -1.322301 -26.285243 5.769703 -28.886417 -51.103329 7.656969 -14.496448 5.353137 14.407971 0.325504 -51.231448 9.076309 -89.758118 83.935379 -87.277041 -0.845443 -20.045272 0.106731 -0.001877 -0.008644 -0.000833 3.418660 -52.028646 -6.618586 95.526356 80.485036 100.636435 8.536680 -21.051044 -9.813485 0.004628 0.001836 0.002054
-3.219295 126.222707 0.100281 175.611612 -16.663198 -2.362232 -0.494275 17.887375 1.987586 -0.085410 1.989431 0.223945 -0.135292 3.272584 0.373119 -0.464848 15.631357 1.735941 -2.345860 8.757353 -1.124657 -2.334285 -16.580206 -0.472539 4.614959 -3.745886 -1.699453 20.729833 -24.639786 -11.982323 43.359169 -39.722228 -19.824486 19.074938 -0.083031 -39.484808 -8.534136 -2.273418 0.232707 -1.310837 -26.279602 5.695540 -28.825162 -50.993504 7.637797 -14.472019 5.312610 14.359590 0.315349 -51.202292 9.088220 -89.622344 83.917928 -87.126453 -0.834830 -20.010423 0.113204 0.007823 -0.004514 0.003473 3.366495 -52.013568 -6.581729 95.568917 80.474471 100.674726 8.553559 -21.035682 -9.842247 0.004512 0.002040 0.002003
